<svg xmlns="http://www.w3.org/2000/svg" version="1.1" xmlns:xlink="http://www.w3.org/1999/xlink" xmlns:svgjs="http://svgjs.com/svgjs" width="260" height="260"><svg width="260" height="260" viewBox="0 0 260 260" fill="none" xmlns="http://www.w3.org/2000/svg">
<rect width="260" height="260" rx="130" fill="#181921"></rect>
<path d="M71.6 213.6L90.2 207.6V61.5L71.6 55.5V44.1H145.7C161.3 44.1 172.9 47.6 180.5 54.6C188.1 61.6 191.9 73.7 191.9 90.9C191.9 102.1 189.3 110.4 184.1 115.8C178.9 121.2 172.5 125.7 164.9 129.3V131.1C176.7 133.1 186.1 137.8 193.1 145.2C200.3 152.4 203.9 161.6 203.9 172.8C203.9 191.6 198.9 205 188.9 213C179.1 221 165.9 225 149.3 225H71.6V213.6ZM138.8 126C147.2 126 153.2 124 156.8 120C160.6 115.8 162.5 107.6 162.5 95.4C162.5 81.8 161.5 72.1 159.5 66.3C157.7 60.3 154.4 57.6 149.6 58.2L118.1 61.8V126H138.8ZM157.7 210.9C163.7 211.5 168 208.6 170.6 202.2C173.2 195.6 174.5 184.6 174.5 169.2C174.5 161.2 173.5 155.4 171.5 151.8C169.5 148 166.8 145.6 163.4 144.6C160 143.6 155.2 143.1 149 143.1H118.1V206.7L157.7 210.9Z" fill="#FA00FF"></path>
</svg><style>@media (prefers-color-scheme: light) { :root { filter: contrast(1) brightness(0.7); } }
</style></svg>