<svg width="155" height="56" viewBox="0 0 155 56" fill="none" xmlns="http://www.w3.org/2000/svg">
<mask id="path-1-outside-1_109_462" maskUnits="userSpaceOnUse" x="0.688004" y="0.656006" width="155" height="55" fill="black">
<rect fill="white" x="0.688004" y="0.656006" width="155" height="55"/>
<path d="M1.688 40.568L5.656 39.288V8.12001L1.688 6.84001V4.408H17.496C20.824 4.408 23.2987 5.15467 24.92 6.64801C26.5413 8.14134 27.352 10.7227 27.352 14.392C27.352 16.7813 26.7973 18.552 25.688 19.704C24.5787 20.856 23.2133 21.816 21.592 22.584V22.968C24.1093 23.3947 26.1147 24.3973 27.608 25.976C29.144 27.512 29.912 29.4747 29.912 31.864C29.912 35.8747 28.8453 38.7333 26.712 40.44C24.6213 42.1467 21.8053 43 18.264 43H1.688V40.568ZM16.024 21.88C17.816 21.88 19.096 21.4533 19.864 20.6C20.6747 19.704 21.08 17.9547 21.08 15.352C21.08 12.4507 20.8667 10.3813 20.44 9.144C20.056 7.86401 19.352 7.28801 18.328 7.416L11.608 8.18401V21.88H16.024ZM20.056 39.992C21.336 40.12 22.2533 39.5013 22.808 38.136C23.3627 36.728 23.64 34.3813 23.64 31.096C23.64 29.3893 23.4267 28.152 23 27.384C22.5733 26.5733 21.9973 26.0613 21.272 25.848C20.5467 25.6347 19.5227 25.528 18.2 25.528H11.608V39.096L20.056 39.992Z"/>
<path d="M47.4315 43.576C42.9942 43.576 39.6662 42.4453 37.4475 40.184C35.2288 37.9227 34.1195 34.4027 34.1195 29.624C34.1195 27.6613 34.2475 25.8053 34.5035 24.056C34.8022 22.264 35.1862 20.9413 35.6555 20.088C36.0822 19.448 36.9568 18.5947 38.2795 17.528C39.6448 16.4613 41.0102 15.5227 42.3755 14.712C43.7408 13.9013 44.6795 13.496 45.1915 13.496C49.5008 13.496 52.7435 14.6693 54.9195 17.016C57.1382 19.32 58.2475 22.6693 58.2475 27.064C58.2475 29.112 58.0982 31.032 57.7995 32.824C57.5435 34.616 57.2235 36.088 56.8395 37.24C56.1568 38.1787 54.5995 39.48 52.1675 41.144C49.7782 42.7653 48.1995 43.576 47.4315 43.576ZM47.7515 39.928C48.0502 39.8427 49.1382 39.3093 51.0155 38.328C51.7408 35.128 52.1035 31.6507 52.1035 27.896C52.1035 24.568 51.4848 21.9653 50.2475 20.088C49.0528 18.2107 47.2608 17.272 44.8715 17.272C43.8048 17.272 42.9515 17.4427 42.3115 17.784C41.7142 18.1253 41.2235 19.256 40.8395 21.176C40.4555 23.096 40.2635 25.6133 40.2635 28.728C40.2635 32.9093 40.9675 35.832 42.3755 37.496C43.8262 39.1173 45.6182 39.928 47.7515 39.928Z"/>
<path d="M75.4075 54.584C73.9142 54.584 71.6955 54.392 68.7515 54.008C65.8502 53.624 63.6955 53.2613 62.2875 52.92L62.8635 48.248L70.7995 41.08C69.6475 41.08 68.4742 40.568 67.2795 39.544C66.1275 38.52 65.1675 37.048 64.3995 35.128C63.6315 33.208 63.2475 30.9467 63.2475 28.344C63.2475 26.9787 63.3542 25.5067 63.5675 23.928C63.8235 22.3067 64.1648 21.0267 64.5915 20.088C65.2742 19.1493 66.8102 17.8693 69.1995 16.248C71.6315 14.584 73.2315 13.752 73.9995 13.752C74.4262 13.752 75.9195 13.944 78.4795 14.328C81.0822 14.712 83.1088 15.0107 84.5595 15.224V44.344C84.5595 45.6667 83.9835 47.1173 82.8315 48.696C81.7222 50.3173 80.4208 51.704 78.9275 52.856C77.4768 54.008 76.3035 54.584 75.4075 54.584ZM74.0635 38.136C74.4902 38.136 76.0475 37.1973 78.7355 35.32V18.68C77.8395 18.3813 76.7515 18.104 75.4715 17.848C74.1915 17.592 73.2102 17.464 72.5275 17.464C72.1862 17.464 71.9728 17.4853 71.8875 17.528C70.1808 18.1253 69.3275 21.752 69.3275 28.408C69.3275 30.712 69.6048 32.6107 70.1595 34.104C70.7142 35.5547 71.3542 36.6 72.0795 37.24C72.8475 37.8373 73.5088 38.136 74.0635 38.136ZM77.3275 51.64C77.7968 51.64 78.1808 50.616 78.4795 48.568C78.7782 46.52 78.9275 44.344 78.9275 42.04V38.84L78.6075 38.712C76.2608 40.8453 73.4022 43.512 70.0315 46.712C69.0502 47.6933 68.1755 48.5253 67.4075 49.208V49.592C68.0902 49.8907 69.6902 50.296 72.2075 50.808C74.7675 51.3627 76.4742 51.64 77.3275 51.64Z"/>
<path d="M102.783 54.584C101.289 54.584 99.0705 54.392 96.1265 54.008C93.2252 53.624 91.0705 53.2613 89.6625 52.92L90.2385 48.248L98.1745 41.08C97.0225 41.08 95.8492 40.568 94.6545 39.544C93.5025 38.52 92.5425 37.048 91.7745 35.128C91.0065 33.208 90.6225 30.9467 90.6225 28.344C90.6225 26.9787 90.7292 25.5067 90.9425 23.928C91.1985 22.3067 91.5398 21.0267 91.9665 20.088C92.6492 19.1493 94.1852 17.8693 96.5745 16.248C99.0065 14.584 100.607 13.752 101.375 13.752C101.801 13.752 103.295 13.944 105.855 14.328C108.457 14.712 110.484 15.0107 111.935 15.224V44.344C111.935 45.6667 111.359 47.1173 110.207 48.696C109.097 50.3173 107.796 51.704 106.303 52.856C104.852 54.008 103.679 54.584 102.783 54.584ZM101.439 38.136C101.865 38.136 103.423 37.1973 106.111 35.32V18.68C105.215 18.3813 104.127 18.104 102.847 17.848C101.567 17.592 100.585 17.464 99.9025 17.464C99.5612 17.464 99.3478 17.4853 99.2625 17.528C97.5558 18.1253 96.7025 21.752 96.7025 28.408C96.7025 30.712 96.9798 32.6107 97.5345 34.104C98.0892 35.5547 98.7292 36.6 99.4545 37.24C100.223 37.8373 100.884 38.136 101.439 38.136ZM104.703 51.64C105.172 51.64 105.556 50.616 105.855 48.568C106.153 46.52 106.303 44.344 106.303 42.04V38.84L105.983 38.712C103.636 40.8453 100.777 43.512 97.4065 46.712C96.4252 47.6933 95.5505 48.5253 94.7825 49.208V49.592C95.4652 49.8907 97.0652 50.296 99.5825 50.808C102.143 51.3627 103.849 51.64 104.703 51.64Z"/>
<path d="M122.03 43.576C121.816 43.576 121.411 43.2773 120.814 42.68C120.216 42.0827 119.918 41.6773 119.918 41.464V5.944L117.614 5.048V2.68C121.198 1.99734 123.182 1.65601 123.566 1.65601C123.779 1.65601 124.184 1.95467 124.782 2.55201C125.379 3.14934 125.678 3.55467 125.678 3.76801V39.224L127.854 40.184V42.552C124.355 43.2347 122.414 43.576 122.03 43.576Z"/>
<path d="M143.118 43.576C141.284 43.576 139.556 43.0853 137.935 42.104C136.313 41.1227 134.991 39.608 133.967 37.56C132.985 35.512 132.495 32.9947 132.495 30.008C132.495 27.8747 132.623 25.912 132.879 24.12C133.177 22.2853 133.561 20.9413 134.031 20.088C134.457 19.448 135.332 18.5947 136.655 17.528C138.02 16.4613 139.385 15.5227 140.751 14.712C142.159 13.9013 143.119 13.496 143.631 13.496C145.935 13.496 147.791 13.8587 149.199 14.584C150.649 15.3093 151.759 16.696 152.527 18.744C153.337 20.792 153.743 23.736 153.743 27.576L138.639 28.856C138.639 31.416 138.98 33.464 139.663 35C140.345 36.4933 141.135 37.5387 142.031 38.136C142.969 38.7333 143.822 39.032 144.59 39.032L147.599 38.904L152.846 38.712V41.336C151.268 41.848 149.391 42.36 147.215 42.872C145.081 43.3413 143.716 43.576 143.118 43.576ZM147.535 25.08C147.535 22.52 147.193 20.6 146.51 19.32C145.828 17.9973 144.697 17.336 143.118 17.336C142.18 17.336 141.369 17.4853 140.687 17.784C140.132 18.04 139.663 19.0213 139.279 20.728C138.937 22.4347 138.767 24.2693 138.767 26.232L147.535 25.08Z"/>
</mask>
<path d="M1.688 40.568L5.656 39.288V8.12001L1.688 6.84001V4.408H17.496C20.824 4.408 23.2987 5.15467 24.92 6.64801C26.5413 8.14134 27.352 10.7227 27.352 14.392C27.352 16.7813 26.7973 18.552 25.688 19.704C24.5787 20.856 23.2133 21.816 21.592 22.584V22.968C24.1093 23.3947 26.1147 24.3973 27.608 25.976C29.144 27.512 29.912 29.4747 29.912 31.864C29.912 35.8747 28.8453 38.7333 26.712 40.44C24.6213 42.1467 21.8053 43 18.264 43H1.688V40.568ZM16.024 21.88C17.816 21.88 19.096 21.4533 19.864 20.6C20.6747 19.704 21.08 17.9547 21.08 15.352C21.08 12.4507 20.8667 10.3813 20.44 9.144C20.056 7.86401 19.352 7.28801 18.328 7.416L11.608 8.18401V21.88H16.024ZM20.056 39.992C21.336 40.12 22.2533 39.5013 22.808 38.136C23.3627 36.728 23.64 34.3813 23.64 31.096C23.64 29.3893 23.4267 28.152 23 27.384C22.5733 26.5733 21.9973 26.0613 21.272 25.848C20.5467 25.6347 19.5227 25.528 18.2 25.528H11.608V39.096L20.056 39.992Z" fill="black"/>
<path d="M47.4315 43.576C42.9942 43.576 39.6662 42.4453 37.4475 40.184C35.2288 37.9227 34.1195 34.4027 34.1195 29.624C34.1195 27.6613 34.2475 25.8053 34.5035 24.056C34.8022 22.264 35.1862 20.9413 35.6555 20.088C36.0822 19.448 36.9568 18.5947 38.2795 17.528C39.6448 16.4613 41.0102 15.5227 42.3755 14.712C43.7408 13.9013 44.6795 13.496 45.1915 13.496C49.5008 13.496 52.7435 14.6693 54.9195 17.016C57.1382 19.32 58.2475 22.6693 58.2475 27.064C58.2475 29.112 58.0982 31.032 57.7995 32.824C57.5435 34.616 57.2235 36.088 56.8395 37.24C56.1568 38.1787 54.5995 39.48 52.1675 41.144C49.7782 42.7653 48.1995 43.576 47.4315 43.576ZM47.7515 39.928C48.0502 39.8427 49.1382 39.3093 51.0155 38.328C51.7408 35.128 52.1035 31.6507 52.1035 27.896C52.1035 24.568 51.4848 21.9653 50.2475 20.088C49.0528 18.2107 47.2608 17.272 44.8715 17.272C43.8048 17.272 42.9515 17.4427 42.3115 17.784C41.7142 18.1253 41.2235 19.256 40.8395 21.176C40.4555 23.096 40.2635 25.6133 40.2635 28.728C40.2635 32.9093 40.9675 35.832 42.3755 37.496C43.8262 39.1173 45.6182 39.928 47.7515 39.928Z" fill="black"/>
<path d="M75.4075 54.584C73.9142 54.584 71.6955 54.392 68.7515 54.008C65.8502 53.624 63.6955 53.2613 62.2875 52.92L62.8635 48.248L70.7995 41.08C69.6475 41.08 68.4742 40.568 67.2795 39.544C66.1275 38.52 65.1675 37.048 64.3995 35.128C63.6315 33.208 63.2475 30.9467 63.2475 28.344C63.2475 26.9787 63.3542 25.5067 63.5675 23.928C63.8235 22.3067 64.1648 21.0267 64.5915 20.088C65.2742 19.1493 66.8102 17.8693 69.1995 16.248C71.6315 14.584 73.2315 13.752 73.9995 13.752C74.4262 13.752 75.9195 13.944 78.4795 14.328C81.0822 14.712 83.1088 15.0107 84.5595 15.224V44.344C84.5595 45.6667 83.9835 47.1173 82.8315 48.696C81.7222 50.3173 80.4208 51.704 78.9275 52.856C77.4768 54.008 76.3035 54.584 75.4075 54.584ZM74.0635 38.136C74.4902 38.136 76.0475 37.1973 78.7355 35.32V18.68C77.8395 18.3813 76.7515 18.104 75.4715 17.848C74.1915 17.592 73.2102 17.464 72.5275 17.464C72.1862 17.464 71.9728 17.4853 71.8875 17.528C70.1808 18.1253 69.3275 21.752 69.3275 28.408C69.3275 30.712 69.6048 32.6107 70.1595 34.104C70.7142 35.5547 71.3542 36.6 72.0795 37.24C72.8475 37.8373 73.5088 38.136 74.0635 38.136ZM77.3275 51.64C77.7968 51.64 78.1808 50.616 78.4795 48.568C78.7782 46.52 78.9275 44.344 78.9275 42.04V38.84L78.6075 38.712C76.2608 40.8453 73.4022 43.512 70.0315 46.712C69.0502 47.6933 68.1755 48.5253 67.4075 49.208V49.592C68.0902 49.8907 69.6902 50.296 72.2075 50.808C74.7675 51.3627 76.4742 51.64 77.3275 51.64Z" fill="black"/>
<path d="M102.783 54.584C101.289 54.584 99.0705 54.392 96.1265 54.008C93.2252 53.624 91.0705 53.2613 89.6625 52.92L90.2385 48.248L98.1745 41.08C97.0225 41.08 95.8492 40.568 94.6545 39.544C93.5025 38.52 92.5425 37.048 91.7745 35.128C91.0065 33.208 90.6225 30.9467 90.6225 28.344C90.6225 26.9787 90.7292 25.5067 90.9425 23.928C91.1985 22.3067 91.5398 21.0267 91.9665 20.088C92.6492 19.1493 94.1852 17.8693 96.5745 16.248C99.0065 14.584 100.607 13.752 101.375 13.752C101.801 13.752 103.295 13.944 105.855 14.328C108.457 14.712 110.484 15.0107 111.935 15.224V44.344C111.935 45.6667 111.359 47.1173 110.207 48.696C109.097 50.3173 107.796 51.704 106.303 52.856C104.852 54.008 103.679 54.584 102.783 54.584ZM101.439 38.136C101.865 38.136 103.423 37.1973 106.111 35.32V18.68C105.215 18.3813 104.127 18.104 102.847 17.848C101.567 17.592 100.585 17.464 99.9025 17.464C99.5612 17.464 99.3478 17.4853 99.2625 17.528C97.5558 18.1253 96.7025 21.752 96.7025 28.408C96.7025 30.712 96.9798 32.6107 97.5345 34.104C98.0892 35.5547 98.7292 36.6 99.4545 37.24C100.223 37.8373 100.884 38.136 101.439 38.136ZM104.703 51.64C105.172 51.64 105.556 50.616 105.855 48.568C106.153 46.52 106.303 44.344 106.303 42.04V38.84L105.983 38.712C103.636 40.8453 100.777 43.512 97.4065 46.712C96.4252 47.6933 95.5505 48.5253 94.7825 49.208V49.592C95.4652 49.8907 97.0652 50.296 99.5825 50.808C102.143 51.3627 103.849 51.64 104.703 51.64Z" fill="black"/>
<path d="M122.03 43.576C121.816 43.576 121.411 43.2773 120.814 42.68C120.216 42.0827 119.918 41.6773 119.918 41.464V5.944L117.614 5.048V2.68C121.198 1.99734 123.182 1.65601 123.566 1.65601C123.779 1.65601 124.184 1.95467 124.782 2.55201C125.379 3.14934 125.678 3.55467 125.678 3.76801V39.224L127.854 40.184V42.552C124.355 43.2347 122.414 43.576 122.03 43.576Z" fill="black"/>
<path d="M143.118 43.576C141.284 43.576 139.556 43.0853 137.935 42.104C136.313 41.1227 134.991 39.608 133.967 37.56C132.985 35.512 132.495 32.9947 132.495 30.008C132.495 27.8747 132.623 25.912 132.879 24.12C133.177 22.2853 133.561 20.9413 134.031 20.088C134.457 19.448 135.332 18.5947 136.655 17.528C138.02 16.4613 139.385 15.5227 140.751 14.712C142.159 13.9013 143.119 13.496 143.631 13.496C145.935 13.496 147.791 13.8587 149.199 14.584C150.649 15.3093 151.759 16.696 152.527 18.744C153.337 20.792 153.743 23.736 153.743 27.576L138.639 28.856C138.639 31.416 138.98 33.464 139.663 35C140.345 36.4933 141.135 37.5387 142.031 38.136C142.969 38.7333 143.822 39.032 144.59 39.032L147.599 38.904L152.846 38.712V41.336C151.268 41.848 149.391 42.36 147.215 42.872C145.081 43.3413 143.716 43.576 143.118 43.576ZM147.535 25.08C147.535 22.52 147.193 20.6 146.51 19.32C145.828 17.9973 144.697 17.336 143.118 17.336C142.18 17.336 141.369 17.4853 140.687 17.784C140.132 18.04 139.663 19.0213 139.279 20.728C138.937 22.4347 138.767 24.2693 138.767 26.232L147.535 25.08Z" fill="black"/>
<path d="M1.688 40.568L5.656 39.288V8.12001L1.688 6.84001V4.408H17.496C20.824 4.408 23.2987 5.15467 24.92 6.64801C26.5413 8.14134 27.352 10.7227 27.352 14.392C27.352 16.7813 26.7973 18.552 25.688 19.704C24.5787 20.856 23.2133 21.816 21.592 22.584V22.968C24.1093 23.3947 26.1147 24.3973 27.608 25.976C29.144 27.512 29.912 29.4747 29.912 31.864C29.912 35.8747 28.8453 38.7333 26.712 40.44C24.6213 42.1467 21.8053 43 18.264 43H1.688V40.568ZM16.024 21.88C17.816 21.88 19.096 21.4533 19.864 20.6C20.6747 19.704 21.08 17.9547 21.08 15.352C21.08 12.4507 20.8667 10.3813 20.44 9.144C20.056 7.86401 19.352 7.28801 18.328 7.416L11.608 8.18401V21.88H16.024ZM20.056 39.992C21.336 40.12 22.2533 39.5013 22.808 38.136C23.3627 36.728 23.64 34.3813 23.64 31.096C23.64 29.3893 23.4267 28.152 23 27.384C22.5733 26.5733 21.9973 26.0613 21.272 25.848C20.5467 25.6347 19.5227 25.528 18.2 25.528H11.608V39.096L20.056 39.992Z" stroke="#FC0081" stroke-width="2" mask="url(#path-1-outside-1_109_462)"/>
<path d="M47.4315 43.576C42.9942 43.576 39.6662 42.4453 37.4475 40.184C35.2288 37.9227 34.1195 34.4027 34.1195 29.624C34.1195 27.6613 34.2475 25.8053 34.5035 24.056C34.8022 22.264 35.1862 20.9413 35.6555 20.088C36.0822 19.448 36.9568 18.5947 38.2795 17.528C39.6448 16.4613 41.0102 15.5227 42.3755 14.712C43.7408 13.9013 44.6795 13.496 45.1915 13.496C49.5008 13.496 52.7435 14.6693 54.9195 17.016C57.1382 19.32 58.2475 22.6693 58.2475 27.064C58.2475 29.112 58.0982 31.032 57.7995 32.824C57.5435 34.616 57.2235 36.088 56.8395 37.24C56.1568 38.1787 54.5995 39.48 52.1675 41.144C49.7782 42.7653 48.1995 43.576 47.4315 43.576ZM47.7515 39.928C48.0502 39.8427 49.1382 39.3093 51.0155 38.328C51.7408 35.128 52.1035 31.6507 52.1035 27.896C52.1035 24.568 51.4848 21.9653 50.2475 20.088C49.0528 18.2107 47.2608 17.272 44.8715 17.272C43.8048 17.272 42.9515 17.4427 42.3115 17.784C41.7142 18.1253 41.2235 19.256 40.8395 21.176C40.4555 23.096 40.2635 25.6133 40.2635 28.728C40.2635 32.9093 40.9675 35.832 42.3755 37.496C43.8262 39.1173 45.6182 39.928 47.7515 39.928Z" stroke="#FC0081" stroke-width="2" mask="url(#path-1-outside-1_109_462)"/>
<path d="M75.4075 54.584C73.9142 54.584 71.6955 54.392 68.7515 54.008C65.8502 53.624 63.6955 53.2613 62.2875 52.92L62.8635 48.248L70.7995 41.08C69.6475 41.08 68.4742 40.568 67.2795 39.544C66.1275 38.52 65.1675 37.048 64.3995 35.128C63.6315 33.208 63.2475 30.9467 63.2475 28.344C63.2475 26.9787 63.3542 25.5067 63.5675 23.928C63.8235 22.3067 64.1648 21.0267 64.5915 20.088C65.2742 19.1493 66.8102 17.8693 69.1995 16.248C71.6315 14.584 73.2315 13.752 73.9995 13.752C74.4262 13.752 75.9195 13.944 78.4795 14.328C81.0822 14.712 83.1088 15.0107 84.5595 15.224V44.344C84.5595 45.6667 83.9835 47.1173 82.8315 48.696C81.7222 50.3173 80.4208 51.704 78.9275 52.856C77.4768 54.008 76.3035 54.584 75.4075 54.584ZM74.0635 38.136C74.4902 38.136 76.0475 37.1973 78.7355 35.32V18.68C77.8395 18.3813 76.7515 18.104 75.4715 17.848C74.1915 17.592 73.2102 17.464 72.5275 17.464C72.1862 17.464 71.9728 17.4853 71.8875 17.528C70.1808 18.1253 69.3275 21.752 69.3275 28.408C69.3275 30.712 69.6048 32.6107 70.1595 34.104C70.7142 35.5547 71.3542 36.6 72.0795 37.24C72.8475 37.8373 73.5088 38.136 74.0635 38.136ZM77.3275 51.64C77.7968 51.64 78.1808 50.616 78.4795 48.568C78.7782 46.52 78.9275 44.344 78.9275 42.04V38.84L78.6075 38.712C76.2608 40.8453 73.4022 43.512 70.0315 46.712C69.0502 47.6933 68.1755 48.5253 67.4075 49.208V49.592C68.0902 49.8907 69.6902 50.296 72.2075 50.808C74.7675 51.3627 76.4742 51.64 77.3275 51.64Z" stroke="#FC0081" stroke-width="2" mask="url(#path-1-outside-1_109_462)"/>
<path d="M102.783 54.584C101.289 54.584 99.0705 54.392 96.1265 54.008C93.2252 53.624 91.0705 53.2613 89.6625 52.92L90.2385 48.248L98.1745 41.08C97.0225 41.08 95.8492 40.568 94.6545 39.544C93.5025 38.52 92.5425 37.048 91.7745 35.128C91.0065 33.208 90.6225 30.9467 90.6225 28.344C90.6225 26.9787 90.7292 25.5067 90.9425 23.928C91.1985 22.3067 91.5398 21.0267 91.9665 20.088C92.6492 19.1493 94.1852 17.8693 96.5745 16.248C99.0065 14.584 100.607 13.752 101.375 13.752C101.801 13.752 103.295 13.944 105.855 14.328C108.457 14.712 110.484 15.0107 111.935 15.224V44.344C111.935 45.6667 111.359 47.1173 110.207 48.696C109.097 50.3173 107.796 51.704 106.303 52.856C104.852 54.008 103.679 54.584 102.783 54.584ZM101.439 38.136C101.865 38.136 103.423 37.1973 106.111 35.32V18.68C105.215 18.3813 104.127 18.104 102.847 17.848C101.567 17.592 100.585 17.464 99.9025 17.464C99.5612 17.464 99.3478 17.4853 99.2625 17.528C97.5558 18.1253 96.7025 21.752 96.7025 28.408C96.7025 30.712 96.9798 32.6107 97.5345 34.104C98.0892 35.5547 98.7292 36.6 99.4545 37.24C100.223 37.8373 100.884 38.136 101.439 38.136ZM104.703 51.64C105.172 51.64 105.556 50.616 105.855 48.568C106.153 46.52 106.303 44.344 106.303 42.04V38.84L105.983 38.712C103.636 40.8453 100.777 43.512 97.4065 46.712C96.4252 47.6933 95.5505 48.5253 94.7825 49.208V49.592C95.4652 49.8907 97.0652 50.296 99.5825 50.808C102.143 51.3627 103.849 51.64 104.703 51.64Z" stroke="#FC0081" stroke-width="2" mask="url(#path-1-outside-1_109_462)"/>
<path d="M122.03 43.576C121.816 43.576 121.411 43.2773 120.814 42.68C120.216 42.0827 119.918 41.6773 119.918 41.464V5.944L117.614 5.048V2.68C121.198 1.99734 123.182 1.65601 123.566 1.65601C123.779 1.65601 124.184 1.95467 124.782 2.55201C125.379 3.14934 125.678 3.55467 125.678 3.76801V39.224L127.854 40.184V42.552C124.355 43.2347 122.414 43.576 122.03 43.576Z" stroke="#FC0081" stroke-width="2" mask="url(#path-1-outside-1_109_462)"/>
<path d="M143.118 43.576C141.284 43.576 139.556 43.0853 137.935 42.104C136.313 41.1227 134.991 39.608 133.967 37.56C132.985 35.512 132.495 32.9947 132.495 30.008C132.495 27.8747 132.623 25.912 132.879 24.12C133.177 22.2853 133.561 20.9413 134.031 20.088C134.457 19.448 135.332 18.5947 136.655 17.528C138.02 16.4613 139.385 15.5227 140.751 14.712C142.159 13.9013 143.119 13.496 143.631 13.496C145.935 13.496 147.791 13.8587 149.199 14.584C150.649 15.3093 151.759 16.696 152.527 18.744C153.337 20.792 153.743 23.736 153.743 27.576L138.639 28.856C138.639 31.416 138.98 33.464 139.663 35C140.345 36.4933 141.135 37.5387 142.031 38.136C142.969 38.7333 143.822 39.032 144.59 39.032L147.599 38.904L152.846 38.712V41.336C151.268 41.848 149.391 42.36 147.215 42.872C145.081 43.3413 143.716 43.576 143.118 43.576ZM147.535 25.08C147.535 22.52 147.193 20.6 146.51 19.32C145.828 17.9973 144.697 17.336 143.118 17.336C142.18 17.336 141.369 17.4853 140.687 17.784C140.132 18.04 139.663 19.0213 139.279 20.728C138.937 22.4347 138.767 24.2693 138.767 26.232L147.535 25.08Z" stroke="#FC0081" stroke-width="2" mask="url(#path-1-outside-1_109_462)"/>
</svg>
